<svg version="1.1" id="_x31_0" xmlns="http://www.w3.org/2000/svg" xmlns:xlink="http://www.w3.org/1999/xlink" x="0px" y="0px" viewBox="0 0 512 512" style="width: 256px; height: 256px; opacity: 1;" xml:space="preserve">
<style type="text/css">
	.st0{fill:#374149;}
</style>
<g>
	<path class="st0" d="M104.324,224.256c53.184-38.863,138.282-87.043,169.371-95.153c7.446-1.922,14.774-3.378,22.242-4.465
		c0.203-0.023,0.398-0.07,0.606-0.094l2.035,19.027h68.457l6.301-58.277c0.375-3.477-0.844-6.934-3.317-9.402
		c-1.648-1.653-3.734-2.762-6.031-3.184c-7.246-1.332-24.43-4.156-40.074-4.156c-20.746,0-42.184,2.844-63.707,8.442
		c-30.41,7.847-107.145,49.218-155.883,81.316v-21.434H22.039v277.89h82.285V224.256z" style="fill: rgb(255, 255, 255);"></path>
	<path class="st0" d="M104.324,88.541c0-24.293,19.062-44.312,43.328-45.5l82.332-4.031c6.938-0.34,12.387-6.066,12.387-13.011
		c0-7.442-6.226-13.371-13.664-13.008L86.149,19.97c-35.902,1.762-64.11,31.383-64.11,67.332v10.454v18.886h82.285V88.541z" style="fill: rgb(255, 255, 255);"></path>
	<path class="st0" d="M148.282,233.502c-0.238,9.52,0.242,19.199,1.602,29.122c3.531,25.984,12.804,50.133,26.445,71.195
		c16.27,25.246,38.805,45.988,65.324,60.141c22.13,11.874,46.981,19.156,73.192,20.582c101.758,5.442,185.918-75.438,185.918-176
		c0-1.679,0-3.359-0.078-5.039c-0.402-14.16-11.922-25.519-26.082-25.519H174.446C160.282,207.982,148.683,219.342,148.282,233.502z
		 M208.305,275.901c2.297-6.399,6.82-11.438,13.019-13.598c12.321-4.402,26.719,4.398,32.078,19.52
		c5.359,15.199-0.32,31.039-12.719,35.438c-12.32,4.32-26.718-4.398-32.082-19.598c-2.68-7.602-2.598-15.36-0.297-21.758V275.901z" style="fill: rgb(255, 255, 255);"></path>
	<rect y="445.068" class="st0" width="512" height="53.958" style="fill: rgb(255, 255, 255);"></rect>
</g>
</svg>
